<svg width="64" height="64" viewBox="0 0 64 64" fill="none" xmlns="http://www.w3.org/2000/svg">
<path class="d" d="M34.9338 27.2503C35.9987 27.2697 37.5359 27.1341 38.1864 26.9018C38.9996 26.6114 45.7952 24.0558 50.0932 19.6416C53.5317 16.1102 55.5529 12.9815 56.1338 11.8586" stroke="#785438" stroke-width="1.39397" stroke-linecap="round"/>
<path class="d" d="M5.45011 54.8518C4.0342 53.0387 1.74449 48.0911 2.02328 43.3516C2.37177 37.4272 3.12685 34.6973 3.93999 32.6064C4.75314 30.5154 8.64463 17.7374 19.4479 16.2853C24.3277 15.6295 28.3705 16.2853 32.6105 23.475C35.6889 29.2832 37.8379 37.8212 39.6384 41.3643C41.439 44.9073 44.0307 48.3797 48.1184 49.7861C50.8358 50.7211 53.4039 50.367 55.2044 49.0892C57.005 47.8114 62 42.0612 62 32.3615" stroke="#785438" stroke-width="1.39397" stroke-linecap="round"/>
<path class="e" d="M41.6562 36.0393L40.7144 35.2258C40.6615 35.1801 40.6434 35.1059 40.6694 35.041C40.7073 34.9462 40.8217 34.9088 40.9083 34.9629L41.6715 35.4399C42.0393 35.7109 42.7982 36.253 42.8912 36.253C42.9737 36.253 43.8876 36.4058 44.4842 36.5078C44.6225 36.5315 44.7583 36.5666 44.8909 36.6127C45.611 36.8632 46.1825 37.4211 46.4502 38.135L46.4675 38.1812C46.5226 38.3282 46.5647 38.4797 46.5932 38.6341L46.9678 40.6633C47.1533 41.6683 47.474 42.643 47.9028 43.5707C48.2315 44.2818 48.5251 44.9416 48.5251 45.0234C48.5251 45.1977 48.9898 45.3719 49.1059 45.43C49.2221 45.4881 49.861 45.3719 49.9772 45.3138C50.0402 45.2823 50.178 45.2312 50.2964 45.1895C50.3879 45.1573 50.489 45.1711 50.5698 45.2249C50.6972 45.3098 50.7449 45.4742 50.6827 45.6141L50.6485 45.691C50.592 45.8181 50.4754 45.9084 50.3382 45.9313L49.5125 46.0689L48.9793 46.1003C48.6817 46.1178 48.3848 46.0568 48.1182 45.9235C47.7796 45.7542 47.5071 45.4769 47.3438 45.1355L47.1493 44.7286C47.0217 44.4619 46.9341 44.178 46.8891 43.8858L46.3929 40.6602C46.3818 40.5883 46.3552 40.5198 46.3149 40.4593C46.21 40.302 46.0253 40.2174 45.8377 40.2409L45.6791 40.2607L45.4176 40.2981C44.7877 40.388 44.1455 40.3276 43.5436 40.1216L42.484 39.7592C42.3337 39.7077 42.2045 39.6083 42.1164 39.4761L41.9038 39.1572C41.8363 39.0559 41.8496 38.9209 41.9358 38.8348C42.0192 38.7513 42.149 38.7358 42.2497 38.7974L42.9914 39.2506C43.0792 39.3043 43.1728 39.3478 43.2704 39.3803L43.4588 39.4432C43.924 39.5982 44.4219 39.6276 44.902 39.5282L45.6613 39.3711C45.7856 39.3454 45.8976 39.2783 45.9789 39.1807C46.0836 39.0551 46.1283 38.8902 46.1014 38.7289L45.9774 37.9849C45.9355 37.7331 45.7875 37.5114 45.571 37.3761C45.4887 37.3247 45.3986 37.2871 45.3042 37.2648L43.2397 36.7758L42.2084 36.3722C42.0068 36.2933 41.8201 36.1807 41.6562 36.0393Z" fill="#785438"/>
<path class="e" d="M53.3952 40.7231C52.5562 40.5024 52.1502 40.121 51.9532 39.8701C51.8873 39.7861 51.9261 39.4898 52.0059 39.4188L52.2673 39.1865C52.2886 39.1676 52.316 39.1572 52.3445 39.1572H52.8562C52.8726 39.1572 52.8889 39.1607 52.9039 39.1674L54.0428 39.6799C54.5268 39.8541 55.5761 40.2026 55.9014 40.2026C56.1988 40.2026 56.8427 40.1055 57.2024 40.0445C57.2559 40.0354 57.3081 40.0666 57.3253 40.1181C57.3417 40.1674 57.3213 40.2214 57.2765 40.2475L56.6727 40.5998C56.6619 40.606 56.6506 40.6105 56.6384 40.613C56.2618 40.6916 55.4417 40.8415 55.0302 40.8415C54.6152 40.8415 53.7845 40.7653 53.4123 40.7263C53.4065 40.7257 53.4009 40.7246 53.3952 40.7231Z" fill="#785438"/>
<path class="e" d="M48.6412 16.0405C49.4776 15.994 50.4999 16.8343 50.9064 17.2602L51.313 17.5506L50.4418 18.3638C50.5579 18.1314 50.4418 17.3183 50.1514 17.144C49.861 16.9698 48.6993 17.0976 48.0023 17.144C47.1311 17.2021 45.8533 18.3057 45.7952 18.4799C45.7371 18.6542 46.7826 19.4673 47.073 19.5835C47.3634 19.6997 48.5251 19.6416 48.7574 19.5835C48.9433 19.537 50.2094 18.7703 49.861 19.1769L47.073 21.4421C47.073 21.4421 48.0738 20.629 47.6538 20.3386C47.2339 20.0481 46.4574 20.0017 46.0856 19.8158C45.621 19.5835 45.5048 18.8865 45.2725 18.8865C45.0866 18.8865 43.4526 20.3192 42.6588 21.0355C42.1554 21.384 41.079 22.081 40.8002 22.081C40.5214 22.081 39.5998 21.0743 39.1739 20.5709C39.1545 20.3966 39.1507 20.0133 39.29 19.8739C39.4643 19.6997 40.5679 21.2679 40.8583 21.3259C41.0906 21.3724 41.381 21.2679 41.4972 21.2098L43.8785 19.4673L45.9114 17.3183C46.4729 16.9117 47.8049 16.087 48.6412 16.0405Z" fill="#785438"/>
<path class="e" d="M39.6385 12.3814C39.29 11.6263 39.232 10.1162 38.7092 10L38.3027 10.1742C38.2252 10.2904 38.0122 10.461 38.0122 10.9293C38.0122 11.394 38.5349 12.6718 39.0577 13.3688C39.4941 13.9506 40.0838 14.1432 40.6259 14.2981L41.3229 14.1238C40.9163 13.8334 39.9626 13.0835 39.6385 12.3814Z" fill="#785438"/>
<style>
@media (prefers-color-scheme: dark){
.d {stroke: white !important;}
.e{fill: white !important;}
}
</style>
</svg>
