<svg width="50" height="56" viewBox="0 0 50 56" fill="none" xmlns="http://www.w3.org/2000/svg">
<g clip-path="url(#clip0_1_807)">
<path d="M47.1368 27.9985V17.2339C47.1368 16.1618 46.375 14.8455 45.4408 14.3077L26.5662 3.45414C25.6321 2.91641 24.105 2.91641 23.1742 3.45414L4.29631 14.3077C3.36218 14.8455 2.60031 16.1618 2.60031 17.2339V27.9985V38.9082C2.60031 39.9803 3.36218 41.2966 4.29631 41.8343L23.1709 52.688C24.105 53.2224 25.6288 53.2224 26.5629 52.688L45.4375 41.8343C46.3716 41.2966 47.1335 39.9803 47.1335 38.9082V27.9985H47.1368ZM49.131 28.015C49.131 34.1609 49.8663 37.295 49.8663 39.2051C49.8663 41.1152 49.0415 43.0847 46.7559 44.269C45.739 44.7968 40.6543 46.4562 36.825 48.7424C33.3933 50.7878 30.2597 53.6645 28.62 54.7927C26.3244 56.3729 23.6214 56.4092 21.412 54.8686C19.5205 53.549 17.1687 51.0352 12.7929 48.5511C8.59593 46.1659 4.67062 45.1828 2.95475 44.2129C1.40119 43.3321 0 41.7783 0 39.1754C0 37.2059 0.798312 31.723 0.801624 28.015V27.982C0.801624 24.2706 0 18.7877 0 16.8216C0 14.222 1.40119 12.6649 2.95475 11.7873C4.66731 10.8174 8.59262 9.83105 12.7929 7.44919C17.1687 4.96507 19.5172 2.45125 21.412 1.13166C23.6181 -0.405655 26.3211 -0.369367 28.62 1.20754C30.2597 2.33579 33.3933 5.21249 36.825 7.25785C40.6543 9.54074 45.739 11.2034 46.7559 11.7313C49.0382 12.9156 49.8663 14.9411 49.8663 16.7952C49.8663 18.6492 49.1343 21.8393 49.131 27.9853V28.0183V28.015Z" fill="white"/>
<path fill-rule="evenodd" clip-rule="evenodd" d="M27.7057 15.8581C24.9067 14.1592 25.1187 14.212 22.313 15.9109C21.3391 16.5014 20.3685 17.092 19.3947 17.6825C18.2751 18.3621 17.1554 19.0416 16.0358 19.7212C13.6475 21.1695 13.7369 21.0045 13.7369 23.9043V31.9505C13.7369 34.9328 13.621 34.7777 16.0789 36.2689C17.1852 36.9386 18.2883 37.6082 19.3947 38.2812C20.4547 38.9245 21.5147 39.5678 22.578 40.2111C25.0822 41.732 24.8934 41.8078 27.3944 40.2903C28.5007 39.6206 29.6038 38.9509 30.7102 38.2779C31.8596 37.5819 33.009 36.8825 34.1585 36.1864C36.5004 34.7645 36.3679 34.8998 36.3679 32.0561V23.9043C36.3679 21.0606 36.5004 21.1959 34.1585 19.774C33.009 19.0779 31.8596 18.3786 30.7102 17.6825C29.7098 17.0755 28.7061 16.4652 27.7057 15.8581ZM33.1051 21.4532V24.0891C33.1051 24.1188 33.0885 24.1485 33.062 24.1649C33.0488 24.1715 33.0322 24.1748 33.019 24.1748C33.0024 24.1748 32.9859 24.1715 32.9726 24.1616L32.2372 23.7031L32.2041 23.6833V35.4375C32.2041 35.487 32.1644 35.5233 32.118 35.5233H29.9814C29.9317 35.5233 29.8953 35.4837 29.8953 35.4375V33.5175L26.1489 31.7064V37.4565C26.1489 37.506 26.1091 37.5423 26.0627 37.5423H23.9262C23.8798 37.5423 23.84 37.5027 23.84 37.4565V31.7097L23.8102 31.7262L20.1069 33.5175L20.0936 33.5241V35.4408C20.0936 35.4903 20.0539 35.5266 20.0075 35.5266H17.8709C17.8246 35.5266 17.7848 35.487 17.7848 35.4408V23.6866L17.7517 23.7064L17.0163 24.1649C17.0163 24.1649 16.9865 24.1781 16.9699 24.1781C16.9567 24.1781 16.9401 24.1748 16.9269 24.1649C16.9004 24.1485 16.8838 24.1221 16.8838 24.0891V21.4532C16.8838 21.4235 16.9004 21.3938 16.9269 21.3773L18.8581 20.2689C18.868 20.2359 18.9011 20.2095 18.9375 20.2095C18.974 20.2095 19.0071 20.2326 19.0204 20.2689L20.9515 21.3806C20.978 21.3971 20.9946 21.4235 20.9946 21.4565V24.0924C20.9946 24.1221 20.978 24.1518 20.9482 24.1682C20.935 24.1748 20.9217 24.1781 20.9052 24.1781C20.8886 24.1781 20.872 24.1748 20.8588 24.1649L20.1267 23.7064L20.0936 23.6866V27.1802L20.1069 27.1868L23.8102 28.9781L23.84 28.9946V26.4016H22.5581C22.5117 26.4016 22.472 26.3621 22.472 26.3159V24.2837C22.472 24.2342 22.5117 24.1979 22.5581 24.1979H23.84V20.4305L23.8069 20.4503L23.0749 20.9089C23.0749 20.9089 23.045 20.9221 23.0285 20.9221C23.0152 20.9221 22.9987 20.9188 22.9854 20.9122C22.9589 20.8957 22.939 20.8693 22.939 20.8363V18.2004C22.939 18.1707 22.9556 18.141 22.9821 18.1245L24.9497 16.993C24.9497 16.993 24.9795 16.9798 24.9928 16.9798C25.006 16.9798 25.0226 16.9831 25.0359 16.993L27.0035 18.1245C27.03 18.141 27.0465 18.1674 27.0465 18.2004V20.8363C27.0465 20.8693 27.03 20.8957 27.0035 20.9122C26.9902 20.9188 26.977 20.9221 26.9604 20.9221C26.9439 20.9221 26.9273 20.9188 26.914 20.9089L26.182 20.4503L26.1489 20.4305V24.1979H27.4308C27.4805 24.1979 27.5169 24.2375 27.5169 24.2837V26.3159C27.5169 26.3621 27.4772 26.4016 27.4308 26.4016H26.1489V28.9979L29.8953 27.1868V23.6899L29.8622 23.7097L29.1268 24.1682C29.1268 24.1682 29.097 24.1814 29.0804 24.1814C29.0672 24.1814 29.0506 24.1781 29.0374 24.1682C29.0109 24.1518 28.991 24.1254 28.991 24.0924V21.4565C28.991 21.4268 29.0075 21.3971 29.034 21.3806L31.0017 20.2491C31.0017 20.2491 31.0315 20.2359 31.0447 20.2359C31.0613 20.2359 31.0745 20.2392 31.0878 20.2491L33.0554 21.3806C33.0819 21.3971 33.0985 21.4235 33.0985 21.4565L33.1051 21.4532Z" fill="white"/>
<path d="M23.2968 30.367L20.1201 31.9043L20.0903 31.9175V31.8845V31.8186V28.8165V28.8132V28.7769L20.1201 28.7934L23.2968 30.3307L23.3399 30.3472L23.2968 30.367Z" fill="white"/>
<path d="M25.5725 25.7814C25.5228 25.7814 25.4864 25.821 25.4864 25.8672V28.9946H24.4992V25.8672C24.4992 25.8177 24.4595 25.7814 24.4131 25.7814H23.0715V24.8016H24.4131C24.4595 24.8016 24.4992 24.7621 24.4992 24.7159V23.5085H25.4864V24.7159C25.4864 24.7654 25.5261 24.8016 25.5725 24.8016H26.9107V25.7814H25.5725Z" fill="white"/>
<path d="M29.8622 31.901L26.6921 30.367L26.6524 30.3472L26.6921 30.3307L29.8622 28.7967L29.8953 28.7802V28.8165V28.8198V31.8153V31.8812V31.9142L29.8622 31.901Z" fill="white"/>
<path d="M8.41705 21.2981C7.7678 21.219 7.0258 20.701 6.18774 19.7476C5.62461 18.9856 5.37286 18.3192 5.42255 17.7518C5.47555 17.1876 5.68755 16.7489 6.06517 16.4454L6.0983 16.419C6.4693 16.1287 6.86017 15.9901 7.26761 16.0066C7.68167 16.0264 8.01623 16.1616 8.26467 16.419C8.49323 16.6499 8.48992 16.9039 8.26136 17.1843C8.1918 17.2668 8.12555 17.3328 8.06261 17.3823C7.91023 17.501 7.77442 17.5241 7.65517 17.4515C7.40673 17.3031 7.1583 17.2965 6.90986 17.4318C6.88005 17.4482 6.85024 17.468 6.82705 17.4878C6.63161 17.6396 6.56536 17.887 6.62167 18.2268C6.6813 18.5897 6.90986 18.9856 7.31398 19.4177C7.72142 19.8598 8.12223 20.0643 8.51311 20.0247C8.69861 20.0082 8.84767 19.9588 8.95698 19.873C9.0928 19.7641 9.1723 19.6091 9.19217 19.4012C9.2253 19.0977 9.32798 18.8734 9.50023 18.7348C9.65923 18.6095 9.85798 18.626 10.0965 18.7777C10.3482 18.9427 10.4807 19.2297 10.4907 19.6454C10.5006 20.0676 10.3184 20.4701 9.94411 20.8528C9.89442 20.9023 9.84142 20.9485 9.79173 20.988C9.44061 21.2652 8.98348 21.3707 8.42367 21.3014L8.41705 21.2981Z" fill="white"/>
<path d="M10.378 18.7348C10.0302 18.5072 9.64266 18.0552 9.20873 17.379C8.79467 16.7291 8.56279 16.2342 8.50979 15.8977C8.45017 15.5051 8.45017 15.1917 8.50979 14.9509C8.5926 14.6309 8.79467 14.334 9.11929 14.0569C9.36773 13.8425 9.66254 13.7171 10.0037 13.6775C10.3085 13.6412 10.59 13.6742 10.855 13.7798C11.1068 13.8787 11.4082 14.1196 11.7627 14.4957C12.0773 14.8289 12.3324 15.162 12.5312 15.4985C12.8061 15.9538 12.9883 16.287 13.0843 16.4981C13.2698 16.9039 13.346 17.2404 13.3096 17.501C13.25 17.9596 12.9916 18.3719 12.5278 18.7414C12.2132 18.9889 11.8389 19.101 11.4049 19.0746C11.0306 19.0548 10.6894 18.9427 10.378 18.7381V18.7348ZM10.6066 15.106C10.3515 14.9476 10.1395 14.8948 9.96398 14.941C9.7056 15.0103 9.57973 15.3006 9.59629 15.8119C9.60291 16.1056 9.73542 16.4519 9.9971 16.8511C10.2621 17.2569 10.5437 17.5439 10.8385 17.7122C11.0704 17.8375 11.3221 17.8276 11.5871 17.6825C11.8587 17.5307 12.0012 17.313 12.0078 17.0293C12.0111 16.7851 11.8389 16.4355 11.4877 15.9769C11.1565 15.548 10.865 15.2577 10.6099 15.106H10.6066Z" fill="white"/>
<path d="M16.4565 15.0202C16.6486 15.3006 16.7248 15.548 16.6817 15.7625C16.6354 15.9769 16.3969 16.1715 15.9629 16.3497C15.5257 16.5245 15.1745 16.7192 14.9062 16.9402C14.6379 17.1579 14.4226 17.2932 14.2636 17.346C14.1046 17.4021 13.9489 17.346 13.7965 17.1843C13.6409 17.0227 13.5282 16.8082 13.462 16.5443C13.3924 16.2837 13.144 15.7229 12.7134 14.8586C12.0509 13.76 11.7494 13.2783 11.6037 13.1299C11.4579 12.988 11.395 12.8462 11.4116 12.7109C11.4314 12.5757 11.5805 12.4206 11.8621 12.2458C12.1436 12.0709 12.339 12.0511 12.455 12.1897C12.7034 12.4767 13.2036 13.5225 13.5812 14.1988C13.9589 14.8717 14.2338 15.327 14.3994 15.5579C14.5154 15.8416 14.7936 15.7889 15.2408 15.3996C15.5787 15.1555 15.8437 15.0004 16.0358 14.9311C16.2279 14.8619 16.367 14.8915 16.4598 15.0235L16.4565 15.0202Z" fill="white"/>
<path d="M14.4922 11.388C14.4822 11.1637 14.5617 10.9295 14.7307 10.6887C14.8764 10.4841 15.0685 10.2961 15.3103 10.1278C15.572 9.94969 15.8205 9.82103 16.0557 9.74185C16.3571 9.64618 16.5857 9.65278 16.7413 9.76495C16.8208 9.82103 16.8772 9.87381 16.9169 9.92989C16.9467 9.97278 16.9666 10.0157 16.9732 10.0619C17.056 10.2268 16.9798 10.4148 16.748 10.6293C16.632 10.7348 16.5095 10.8272 16.377 10.8998C16.1948 11.012 16.0523 11.1109 15.9497 11.1967C15.7575 11.3485 15.6548 11.4738 15.635 11.5794C15.6151 11.5926 15.6085 11.6421 15.6184 11.7311C15.6317 11.8565 15.7045 11.9852 15.8304 12.1138C15.9099 12.193 16.0225 12.2194 16.1716 12.193C16.1749 12.193 16.1815 12.193 16.1915 12.193C16.2312 12.1831 16.2743 12.1732 16.3207 12.1567C16.5028 12.1039 16.6652 12.0511 16.8076 11.995C16.8076 11.995 16.8175 11.9885 16.8341 11.9852C17.109 11.873 17.2747 11.8862 17.331 12.0247C17.3641 12.0775 17.3873 12.1435 17.3972 12.2227C17.4171 12.3744 17.3641 12.5097 17.2415 12.6219C17.1289 12.6977 17.0196 12.7802 16.9136 12.8693C16.8208 12.9254 16.7347 13.0012 16.6552 13.0936C16.5028 13.275 16.4631 13.4499 16.5393 13.6214C16.5393 13.6214 16.5393 13.6247 16.5393 13.628C16.5625 13.7006 16.6122 13.7798 16.685 13.8755C16.7778 14.047 16.8838 14.1526 17.0097 14.1955C17.0097 14.1955 17.013 14.1955 17.0163 14.1955H17.0229C17.0428 14.2021 17.066 14.2054 17.0892 14.2054H17.0991C17.0991 14.2054 17.1057 14.2054 17.109 14.2054C17.109 14.2054 17.1123 14.2087 17.1157 14.2087C17.1256 14.2087 17.1256 14.2054 17.1223 14.2054C17.1753 14.1988 17.5132 14.047 18.1326 13.7468C18.3446 13.6775 18.497 13.6742 18.5963 13.7402C18.6527 13.793 18.6924 13.826 18.7123 13.8425C18.9011 13.9843 18.9442 14.1724 18.8415 14.4033C18.7156 14.6804 18.3976 14.9674 17.8808 15.2676C17.6688 15.393 17.4303 15.4623 17.1653 15.4755C16.8374 15.4887 16.5525 15.4029 16.3074 15.2148C16.0391 15.007 15.7675 14.7101 15.4958 14.3274C15.1646 13.8557 14.9029 13.2421 14.7174 12.4833C14.6611 12.2854 14.5982 11.9983 14.5286 11.6256C14.5021 11.5497 14.4888 11.4738 14.4855 11.4012L14.4922 11.388Z" fill="white"/>
<path d="M20.8522 13.6049C20.5739 13.7336 20.289 13.8293 19.9479 13.7963C19.6199 13.7633 19.2887 13.6445 18.9574 13.4334C18.2154 12.9649 17.6887 12.2458 17.384 11.2792C17.0991 10.3851 17.2184 9.75174 17.6556 9.12164C17.8709 8.80494 18.116 8.57731 18.3943 8.44865C18.7289 8.2903 19.2357 8.15834 19.4907 8.25731C19.6299 8.30679 19.7325 8.40246 19.7988 8.54432C19.8584 8.66968 19.9147 9.03917 19.61 9.11504C19.4046 9.16783 18.9409 9.22721 18.7852 9.34597C18.497 9.53071 18.328 9.84082 18.275 10.273C18.2485 10.4874 18.2519 10.6854 18.285 10.8635H18.2883C18.3314 11.299 18.9574 12.4998 19.706 12.7274C20.087 12.8429 20.7892 12.6152 20.8787 12.226C20.9284 12.0115 20.7495 11.6816 20.554 11.5629C20.3586 11.4441 20.0373 11.8499 19.822 11.8268C19.6067 11.8037 19.4609 11.4705 19.4576 11.2825C19.4576 11.134 19.4841 11.0087 19.5769 10.9559C20.5574 10.4214 20.8654 10.6029 21.1072 10.7777C21.571 11.1142 21.8029 11.995 21.7664 12.3843C21.7333 12.7736 21.6207 13.2519 20.8522 13.6082V13.6049Z" fill="white"/>
<path d="M20.5474 8.3167C20.3884 8.17484 20.2857 8.0066 20.2393 7.81196C20.1897 7.60412 20.2228 7.42598 20.3387 7.27752C20.352 7.26433 20.3652 7.24783 20.3785 7.23134C20.5275 7.08288 20.7197 7.0202 20.9515 7.04989C21.1702 7.07629 21.359 7.16536 21.5146 7.32041C21.614 7.41938 21.6803 7.52824 21.7167 7.65031C21.773 7.85154 21.7233 8.04618 21.571 8.23752C21.5577 8.25732 21.5445 8.27051 21.5345 8.27711C21.3788 8.45526 21.2033 8.54103 21.0078 8.53113C20.8422 8.52123 20.6865 8.44866 20.5408 8.3167H20.5474ZM20.9582 9.22062C20.9449 9.00618 21.0145 8.87092 21.1735 8.81484C21.3689 8.77196 21.508 8.72577 21.5908 8.68288C21.6571 8.65649 21.7366 8.65979 21.8227 8.69608C21.9055 8.73237 21.9883 8.82144 22.0745 8.9666C22.0877 8.98969 22.1076 9.02598 22.1308 9.06886C22.1506 9.09855 22.1705 9.13814 22.1937 9.18763C22.2235 9.24701 22.2467 9.29649 22.2699 9.33608C22.3958 9.55381 22.4885 9.74515 22.5481 9.9068C22.568 9.96948 22.6011 10.0586 22.6508 10.1806C22.9887 11.0944 23.1643 11.5695 23.1709 11.6091C23.2371 11.9357 23.2206 12.1732 23.1245 12.3216C23.055 12.4272 22.6608 12.7967 22.3494 12.5757C21.8492 12.2194 21.5577 11.6553 21.4318 11.167C21.2927 10.6095 21.1867 10.207 21.1205 9.95629C21.1138 9.94309 21.1072 9.9167 21.1039 9.88041C21.0973 9.84742 21.0907 9.82433 21.084 9.80453C21.0377 9.62639 21.0078 9.50103 20.9913 9.42845C20.9747 9.34928 20.9681 9.30969 20.9681 9.30969C20.9681 9.30969 20.9681 9.28 20.9615 9.22391L20.9582 9.22062Z" fill="white"/>
<path d="M23.0351 11.101C22.843 10.7348 22.7204 10.1509 22.674 9.34927C22.6277 8.58061 22.6674 8.03628 22.7833 7.71628C22.9225 7.3435 23.0748 7.06968 23.2471 6.88824C23.4757 6.64742 23.797 6.48577 24.2143 6.40329C24.5357 6.33731 24.8537 6.367 25.175 6.49896C25.4598 6.61113 25.6884 6.77937 25.8706 6.99711C26.0428 7.20494 26.1886 7.56123 26.3145 8.06267C26.4271 8.50474 26.4867 8.92041 26.4967 9.30968C26.5132 9.83752 26.5132 10.2202 26.4967 10.4511C26.4602 10.8965 26.3642 11.2264 26.2018 11.4375C25.9269 11.8103 25.4996 12.0445 24.9166 12.1435C24.5224 12.2062 24.1382 12.1237 23.7705 11.8928C23.4558 11.6948 23.2107 11.4309 23.0384 11.101H23.0351ZM25.006 8.03958C24.8603 7.77896 24.698 7.62721 24.5224 7.58762C24.2607 7.52164 24.0123 7.71628 23.7771 8.17154C23.6413 8.43216 23.5883 8.79834 23.6214 9.2734C23.6578 9.75504 23.7638 10.141 23.9394 10.4313C24.0818 10.6524 24.3038 10.7645 24.6085 10.7645C24.9199 10.7645 25.1485 10.6425 25.2942 10.395C25.4168 10.1839 25.4367 9.79463 25.3505 9.22391C25.271 8.68948 25.1551 8.2969 25.0093 8.03958H25.006Z" fill="white"/>
<path d="M28.7094 11.5299C28.9148 11.2429 29.1831 10.7777 29.5143 10.1377C29.9284 9.34267 30.263 8.81813 30.5147 8.56411C30.6008 8.47504 30.6936 8.39916 30.7896 8.33648C30.8195 8.31999 30.8493 8.31009 30.8824 8.31009C31.1176 8.34308 31.5085 8.50803 32.055 8.80823C32.6612 9.14143 33.0554 9.43834 33.231 9.70225C33.3436 9.8672 33.3469 10.019 33.2442 10.1542C32.9593 10.4973 32.7407 10.6557 32.5916 10.6293C32.6215 10.6359 32.4293 10.5105 32.0153 10.2598C31.9821 10.24 31.9258 10.2037 31.8463 10.1443C31.7569 10.0849 31.6873 10.0387 31.641 10.0091C31.4687 9.89689 31.3296 9.84081 31.2302 9.84411C31.0116 10.0091 30.7963 10.2598 30.5843 10.5963C30.571 10.6095 30.5611 10.6293 30.5478 10.6524C30.5478 10.6557 30.5412 10.6623 30.5379 10.6689C30.5015 10.7447 30.4816 10.8173 30.475 10.8866C30.475 10.9658 30.5081 11.0383 30.571 11.0944C30.5843 11.1076 30.6174 11.1307 30.6638 11.167C30.7068 11.1967 30.7366 11.2231 30.7631 11.2462C30.783 11.266 30.8625 11.322 31.0016 11.4144C31.1176 11.4903 31.1805 11.5431 31.1838 11.5728C31.1938 11.6651 31.1573 11.7641 31.0679 11.8697C31.0381 11.9027 31.005 11.9357 30.9652 11.9719C30.9089 12.0247 30.8857 12.0478 30.8923 12.0412C30.8228 12.1105 30.7002 12.1072 30.5246 12.0412C30.465 12.0181 30.3921 11.9851 30.306 11.939C30.1835 11.873 30.1205 11.8367 30.1139 11.8367C30.0311 11.7971 29.9748 11.774 29.945 11.7674C29.8787 11.7608 29.7926 11.8103 29.6866 11.9159C29.521 12.0841 29.3785 12.348 29.2526 12.7109V12.7175C29.2394 12.7406 29.2361 12.7571 29.2361 12.7637C29.1566 13.0144 29.0572 13.1497 28.9413 13.1695C28.6299 13.2651 28.3715 13.2223 28.1628 13.0408C28.08 12.9715 28.037 12.8858 28.0237 12.7802C28.027 12.579 28.1065 12.3777 28.2622 12.1765C28.408 11.9818 28.557 11.7641 28.7094 11.52V11.5266V11.5299Z" fill="white"/>
<path d="M34.6487 10.174L34.7083 10.2103C35.076 10.428 35.086 11.1934 34.7348 12.513C34.6156 12.9452 34.3771 13.5852 34.0193 14.4264C33.8471 15.073 33.7113 15.4821 33.6053 15.6569C33.4728 15.8779 33.1978 15.9241 32.7805 15.7988C32.5221 15.647 32.5221 15.3501 32.7871 14.908C32.9395 14.6507 32.8798 14.4396 32.6049 14.2779L32.2538 14.0734C31.9821 13.9117 31.7701 13.9546 31.6244 14.2021C31.5316 14.3835 31.4588 14.5188 31.4091 14.6012C31.2931 14.7233 31.1077 14.7101 30.8559 14.5616L30.8128 14.5386C30.581 14.4033 30.6306 14.0107 30.9586 13.3641L31.2137 12.9353C31.7867 11.972 32.6016 11.1175 33.655 10.3819C34.1154 10.1278 34.4466 10.0586 34.6487 10.1773V10.174ZM32.8865 12.4239L32.7937 12.579C32.6082 12.8924 32.6645 13.1365 32.966 13.3146C33.168 13.4334 33.3933 13.3905 33.645 13.1893C33.7345 13.0672 33.8007 12.9748 33.8405 12.9089L33.9564 12.7142C34.2876 12.0709 34.3406 11.6816 34.1187 11.5497L34.0988 11.5365C33.8338 11.3814 33.4297 11.675 32.8898 12.4239H32.8865Z" fill="white"/>
<path d="M37.4113 15.9241C37.3418 16.1979 37.2424 16.4388 37.1033 16.6466H37.1066C37.0503 16.7423 36.9641 16.8445 36.8416 16.9534C36.5965 17.1711 36.2983 17.3064 35.9538 17.3658C35.5961 17.4219 35.2582 17.3691 34.9303 17.2041C34.8143 17.1579 34.7083 17.0854 34.6156 16.993C34.6056 16.9831 34.5957 16.9765 34.5924 16.9699H34.5957C34.3804 16.7588 34.2181 16.4619 34.1088 16.0858C34.079 15.9769 34.0558 15.868 34.0392 15.7592C34.0061 15.492 34.016 15.2775 34.0756 15.1126C34.185 14.7761 34.3605 14.6177 34.6056 14.6342C34.715 14.6408 34.811 14.6672 34.8971 14.7134C35.0595 14.8421 35.1588 15.0301 35.1986 15.2841C35.1986 15.3006 35.1986 15.3171 35.2052 15.3369V15.3435C35.2218 15.4392 35.2483 15.5282 35.2847 15.6173C35.4338 15.9439 35.6623 16.0858 35.9704 16.0396C36.0764 16.0099 36.1791 15.9538 36.2751 15.868C36.4706 15.6932 36.5435 15.4557 36.4971 15.1555C36.4673 14.9905 36.3778 14.7596 36.2221 14.4594C36.0002 14.0437 35.8412 13.7039 35.7385 13.4499C35.6027 13.12 35.6126 12.8066 35.765 12.5163C35.9638 12.1831 36.2785 11.9917 36.7124 11.9423C37.0834 11.9126 37.4246 11.9983 37.7393 12.1996C37.7658 12.2194 37.7989 12.2392 37.8353 12.2689C37.8552 12.2821 37.8751 12.2986 37.895 12.3117C38.1732 12.5361 38.2891 12.7274 38.2428 12.8825C38.203 13.021 38.0904 13.1299 37.9115 13.2025C37.7856 13.2256 37.6796 13.1596 37.5869 13.0078C37.4975 12.8264 37.3683 12.7373 37.196 12.7373C37.196 12.7373 37.1828 12.734 37.1563 12.734C37.1231 12.734 37.0867 12.734 37.0536 12.7439C36.941 12.7637 36.8383 12.8231 36.7455 12.9188C36.6991 12.9649 36.6793 13.0375 36.6793 13.1398C36.6726 13.3443 36.7786 13.5885 36.9973 13.8755C37.0039 13.8854 37.0105 13.8986 37.0171 13.9117C37.4842 14.5847 37.62 15.2445 37.4279 15.8911C37.4279 15.8944 37.4213 15.901 37.4213 15.9109C37.4213 15.9208 37.4213 15.9241 37.4213 15.9241V15.9307L37.4113 15.9241Z" fill="white"/>
<path d="M40.4058 13.7402L40.5615 13.8392C40.6741 13.9051 40.8265 13.9876 41.0186 14.0866C41.2472 14.1987 41.3896 14.2746 41.4526 14.3109C41.7573 14.4792 41.9329 14.6474 41.9726 14.8157C41.9991 14.9311 41.9793 15.0433 41.9097 15.1555L41.9031 15.1653C41.8037 15.3633 41.6646 15.4722 41.4857 15.4919C41.3499 15.482 41.2041 15.4359 41.0485 15.3468C40.8133 15.2148 40.6476 15.1291 40.5483 15.0895C40.3694 15.0235 40.2104 15.0367 40.0713 15.139C40.0448 15.1126 39.9056 15.2907 39.6638 15.6701C39.5313 15.8614 39.4121 16.0528 39.2995 16.2408C39.157 16.4651 38.9781 16.8214 38.7562 17.3097C38.5641 17.7319 38.4183 18.0223 38.3223 18.174C38.1136 18.5072 37.9215 18.6952 37.7426 18.7315C37.5935 18.7645 37.418 18.715 37.2225 18.5831C37.0635 18.4742 37.0105 18.3159 37.0602 18.108C37.1066 17.92 37.249 17.6297 37.4908 17.2437L37.5438 17.1579C37.7095 16.9402 38.001 16.541 38.415 15.9637C38.6171 15.6965 38.7827 15.459 38.9152 15.2412C39.1504 14.8948 39.2597 14.6639 39.2431 14.5451C39.2531 14.4693 39.2431 14.3934 39.2133 14.3142C39.1968 14.2581 39.167 14.202 39.1239 14.146C39.0941 14.1064 39.0676 14.0767 39.0444 14.0602C38.9682 13.9909 38.8788 13.9315 38.7728 13.8853C38.6734 13.8425 38.584 13.7666 38.5078 13.6544C38.4051 13.4565 38.425 13.2717 38.5707 13.1002C38.6635 12.9484 38.7794 12.866 38.9152 12.8594C39.0311 12.8528 39.1769 12.899 39.3458 12.9979C39.4485 13.0606 39.6175 13.1761 39.8493 13.3476C40.0878 13.5291 40.2071 13.6181 40.2071 13.6181C40.2071 13.6181 40.2733 13.6577 40.4025 13.7369L40.4058 13.7402Z" fill="white"/>
<path d="M43.4467 16.221L43.4931 16.2705C43.7746 16.5905 43.609 17.2338 43.0194 18.1245C42.6881 18.626 42.2542 19.3287 41.6878 20.0874C41.287 20.6218 40.9126 20.9847 40.7503 21.1101C40.4886 21.3146 40.28 21.2388 39.9222 20.9913C39.7235 20.767 39.8195 20.4833 40.2038 20.1435C40.429 19.9456 40.439 19.7278 40.227 19.487L39.9586 19.1835C39.75 18.946 39.538 18.9229 39.3193 19.1109C39.1736 19.2561 39.0643 19.3583 38.9914 19.4243C38.8423 19.5035 38.6734 19.4342 38.478 19.2165L38.4448 19.1802C38.266 18.979 38.4349 18.6227 38.9483 18.108L39.3226 17.7781C40.1673 17.0392 41.2075 16.4783 42.4364 16.1023C42.9531 16.0033 43.2877 16.0396 43.4434 16.2144L43.4467 16.221ZM41.0716 17.8144L40.9358 17.9332C40.6609 18.174 40.641 18.4247 40.8696 18.6854C41.0253 18.8602 41.2538 18.8899 41.5553 18.7744C41.6778 18.6887 41.7706 18.6194 41.8302 18.5666L41.9991 18.4181C42.5126 17.9068 42.6848 17.5538 42.5159 17.3625L42.4993 17.346C42.294 17.115 41.8203 17.2701 41.0716 17.8144Z" fill="white"/>
<path d="M9.96068 34.5138C9.39093 34.9592 8.76818 35.2 8.09574 35.2396C7.6088 35.266 7.09868 35.1538 6.56205 34.8965C6.06187 34.659 5.70743 34.3785 5.49874 34.0552C5.24037 33.6594 5.08799 33.3163 5.0383 33.0227C5.02174 32.6763 5.08468 32.4223 5.23043 32.2672C5.33974 32.1517 5.46893 32.0693 5.61799 32.0231C6.18443 31.8647 7.09205 31.7526 8.33424 31.6899C9.51018 31.6305 10.2422 31.6404 10.5304 31.7163C10.6497 31.746 10.7391 31.8284 10.802 31.9637C10.8882 32.1649 10.9014 32.4552 10.8352 32.828C10.8153 33.0326 10.759 33.2602 10.6695 33.5109C10.5006 33.9959 10.2654 34.3291 9.96399 34.5072L9.96068 34.5138ZM7.48624 33.9761C7.82411 34.0618 8.21499 34.0289 8.65886 33.8738C9.08286 33.6924 9.35449 33.4812 9.47043 33.2371C9.53336 33.1117 9.53005 33.0161 9.47043 32.9534C9.37436 32.861 8.85761 32.8379 7.91686 32.8874C6.99268 32.9369 6.47593 33.0029 6.36993 33.082C6.35337 33.0919 6.34012 33.1051 6.33349 33.1216C6.31362 33.1645 6.32355 33.2239 6.36662 33.2998C6.43949 33.4218 6.5753 33.5472 6.77074 33.6726C6.98274 33.8078 7.22455 33.9101 7.49287 33.9761H7.48624Z" fill="white"/>
<path d="M6.40637 37.0342C6.61174 36.6944 7.03243 36.3018 7.66843 35.8598C8.28124 35.4375 8.7483 35.1934 9.06962 35.1274C9.44393 35.0548 9.74868 35.0416 9.98387 35.0911C10.2986 35.1571 10.5934 35.3385 10.8716 35.6387C11.0869 35.8664 11.2227 36.1435 11.2757 36.4701C11.3254 36.7604 11.3022 37.0309 11.2128 37.2882C11.1267 37.5324 10.9081 37.8326 10.5569 38.1856C10.2489 38.499 9.93418 38.7596 9.6228 38.9608C9.19549 39.2412 8.8808 39.4326 8.68205 39.5315C8.29781 39.7262 7.97649 39.8119 7.72143 39.7889C7.27424 39.7526 6.86681 39.5183 6.49249 39.0928C6.24074 38.8025 6.11818 38.4462 6.12149 38.0305C6.12481 37.6709 6.22087 37.341 6.40637 37.0342ZM9.92093 37.1035C10.0634 36.8528 10.1064 36.6449 10.0534 36.48C9.97724 36.2326 9.69237 36.127 9.1988 36.1633C8.91724 36.1831 8.58931 36.3249 8.21168 36.5889C7.83074 36.8594 7.56574 37.1398 7.41668 37.4301C7.30406 37.6577 7.32393 37.8952 7.47631 38.146C7.63199 38.4 7.84731 38.5253 8.12556 38.522C8.36074 38.5154 8.69199 38.334 9.1193 37.981C9.5168 37.6478 9.78512 37.3575 9.92424 37.1035H9.92093Z" fill="white"/>
<path d="M11.2294 37.6412C11.3387 37.4037 11.4977 37.2816 11.7064 37.275C11.9184 37.2651 12.1138 37.3509 12.2927 37.5258C12.4749 37.7039 12.5179 38.146 12.4185 38.8586C12.3159 39.5678 12.5809 39.7262 13.2169 39.3303C13.8462 38.9377 14.2769 38.7662 14.512 38.819C14.7439 38.8717 14.9029 39.0037 14.9924 39.2181C15.0818 39.4326 15.0255 39.68 14.83 39.9637C14.6445 40.2309 14.3232 40.7291 13.8661 41.4581C13.4222 42.1674 13.0877 42.8041 12.869 43.3649C12.6471 43.9225 12.3059 44.0544 11.8455 43.7641C11.385 43.4738 11.3188 43.1109 11.65 42.6755C11.9945 42.2235 12.3854 41.6858 12.8227 41.0623C13.2732 40.4223 13.1539 40.3101 12.4649 40.7291C11.7792 41.1447 11.4778 40.9633 11.5639 40.1847C11.6467 39.4029 11.5374 39.2874 11.2393 39.8383C10.9412 40.3893 10.6563 40.9864 10.388 41.6396C10.123 42.2862 9.74536 42.4676 9.26173 42.1872C8.7748 41.9068 8.64561 41.6 8.86755 41.2701C9.13586 40.8775 9.53667 40.3002 10.07 39.5348C10.7358 38.5188 11.1267 37.8887 11.236 37.6478L11.2294 37.6412Z" fill="white"/>
<path d="M14.6313 41.0524C14.787 40.9171 14.9327 40.8907 15.0685 40.9765C15.2176 41.1019 15.3335 41.181 15.413 41.214C15.4727 41.2503 15.5157 41.3097 15.5389 41.3988C15.5588 41.4812 15.5389 41.6 15.4793 41.7485C15.4694 41.7715 15.4528 41.8078 15.4329 41.8507C15.4197 41.8837 15.4031 41.92 15.3799 41.9662C15.3501 42.0223 15.3269 42.0718 15.3104 42.108C15.2176 42.3324 15.1249 42.5138 15.0354 42.6557C14.999 42.7052 14.9493 42.7876 14.883 42.8932C14.3795 43.685 14.1145 44.0973 14.088 44.1237C13.876 44.3645 13.6839 44.4932 13.515 44.5031C13.3924 44.5097 13.2732 44.4635 13.1539 44.3579C13.1605 44.3645 13.144 44.3513 13.1109 44.3151C13.0148 44.193 12.9618 44.0841 12.9519 43.9918C12.9552 43.4012 13.1075 42.9163 13.409 42.5369C13.7535 42.1047 14.0052 41.7913 14.1576 41.5934C14.1642 41.5802 14.1808 41.5604 14.204 41.5373C14.2239 41.5142 14.2404 41.4944 14.2504 41.4779C14.3597 41.3394 14.4392 41.2437 14.4855 41.1876C14.5385 41.1282 14.565 41.0986 14.565 41.0986C14.565 41.0986 14.5849 41.0821 14.628 41.0458L14.6313 41.0524ZM15.0884 40.2111C15.105 40.0066 15.1745 39.8318 15.2971 39.6833C15.4296 39.5249 15.5853 39.4458 15.7642 39.4491C15.7807 39.4491 15.8006 39.4491 15.8238 39.4524C16.0259 39.4788 16.1849 39.5909 16.2975 39.7823C16.4068 39.9637 16.4465 40.1617 16.42 40.3695C16.4035 40.5014 16.3571 40.6169 16.2875 40.7159C16.165 40.8742 15.9861 40.9501 15.7509 40.9468C15.7277 40.9468 15.7079 40.9468 15.6979 40.9468C15.4694 40.9336 15.3037 40.8478 15.1944 40.6928C15.105 40.5608 15.0719 40.4025 15.0884 40.2111Z" fill="white"/>
<path d="M17.3741 45.7765C17.3442 45.859 17.3211 45.9447 17.2714 46.0338C17.172 46.2053 17.0494 46.2944 16.9037 46.3043C16.7116 46.3175 16.5824 46.1823 16.5128 45.9051C16.4366 45.539 16.4002 44.9847 16.4134 44.2458C16.4134 44.0775 16.3836 43.8499 16.3141 43.5662C16.2942 43.4507 16.2644 43.388 16.2246 43.3814C16.1186 43.3583 16.0325 43.4144 15.9662 43.5497C15.9596 43.5596 15.9563 43.5728 15.9497 43.5893C15.9431 43.6058 15.9364 43.619 15.9331 43.6256C15.4462 44.6713 15.1712 45.2157 15.1116 45.2618C15.0487 45.3113 14.9791 45.341 14.9096 45.3542H14.9062C14.8135 45.3872 14.6843 45.3641 14.522 45.2783C14.3332 45.1794 14.2239 45.0474 14.1941 44.8792C14.1642 44.7208 14.2239 44.5064 14.3729 44.2326C14.4591 44.0808 14.5386 43.9588 14.6114 43.8664C15.3336 42.7546 15.8106 41.9464 16.0424 41.4416L16.5592 40.5113C16.5824 40.4684 16.6321 40.4157 16.7082 40.3464C16.8308 40.2606 16.9501 40.2441 17.066 40.3002C17.0594 40.2903 17.0792 40.3068 17.119 40.3464C17.1587 40.386 17.1919 40.4289 17.2217 40.4816C17.2747 40.5905 17.3012 40.7258 17.3012 40.8808C17.3012 41.115 17.2879 41.4977 17.2548 42.0322C17.1819 42.4742 17.2283 42.8734 17.3972 43.2297C17.4271 43.3286 17.4734 43.3847 17.5397 43.3946C17.5927 43.4045 17.6954 43.2363 17.8477 42.8866C17.8941 42.7843 17.9537 42.6425 18.0266 42.461C18.0995 42.2862 18.1459 42.174 18.1657 42.1311C18.2817 41.8837 18.4274 41.6924 18.603 41.5505C18.8282 41.3691 19.0336 41.346 19.2191 41.4812C19.4145 41.5868 19.5172 41.7352 19.5239 41.92C19.5305 42.0388 19.4974 42.1641 19.4278 42.2961C19.3947 42.3489 19.345 42.4181 19.2787 42.5006C19.2092 42.5864 18.1624 43.487 17.3707 45.7831L17.3741 45.7765Z" fill="white"/>
<path d="M18.858 47.8515C18.5599 47.7394 18.3148 47.5348 18.1227 47.2412C17.9372 46.9575 17.8179 46.6177 17.7715 46.2251C17.6689 45.3443 17.9074 44.4866 18.487 43.6486C19.0204 42.8767 19.6829 42.4742 20.4712 42.4412C20.8654 42.4247 21.2066 42.4841 21.4915 42.626C21.5875 42.6656 21.6935 42.7348 21.8095 42.8272C22.038 43.0152 22.197 43.2396 22.2832 43.5035C22.3329 43.6453 22.3196 43.7872 22.25 43.9258C22.1871 44.0511 22.0944 44.1468 21.9718 44.2161C21.8459 44.2853 21.7234 44.3051 21.6107 44.2721C21.4815 44.2359 21.3921 44.1402 21.3424 43.9884C21.2762 43.7839 21.1437 43.6519 20.9482 43.5992C20.617 43.4837 20.2559 43.5332 19.875 43.7575C19.6829 43.8664 19.5272 43.9884 19.4079 44.1237H19.4112C19.0866 44.4272 18.8978 44.8231 18.8481 45.308C18.8084 45.6808 18.8481 46.0635 18.964 46.4495C19.08 46.8354 19.2986 47.0466 19.6133 47.0829C19.7425 47.0961 19.865 47.0697 19.9777 47.007C20.0936 46.9377 20.1797 46.842 20.2327 46.7167C20.3189 46.5154 20.3122 46.3703 20.2162 46.2812C19.9744 46.0602 19.8485 45.9414 19.8352 45.9249C19.716 45.7402 19.7325 45.5917 19.8882 45.4796C19.981 45.4202 20.0837 45.4004 20.1963 45.4136C20.4514 45.4598 20.67 45.539 20.8489 45.6544C21.1304 45.8326 21.2695 46.0701 21.2662 46.367C21.2596 46.5814 21.19 46.7992 21.0509 47.0268C20.9151 47.2511 20.7329 47.4458 20.511 47.6074C19.981 47.9934 19.4311 48.0759 18.8614 47.8548L18.858 47.8515Z" fill="white"/>
<path d="M21.0178 47.4623C21.0112 47.0532 21.1669 46.4858 21.4815 45.7567C21.7863 45.0573 22.0612 44.5921 22.3097 44.3612C22.5979 44.094 22.8562 43.9192 23.0881 43.8367C23.3962 43.7245 23.7539 43.7245 24.158 43.8367C24.4694 43.9192 24.7377 44.0907 24.963 44.348C25.1617 44.5724 25.2909 44.8231 25.3539 45.0969C25.4102 45.3575 25.3837 45.7369 25.2677 46.235C25.1684 46.6771 25.0359 47.0697 24.8735 47.4161C24.6516 47.8911 24.4827 48.2276 24.3634 48.4223C24.1315 48.7983 23.8997 49.0458 23.6645 49.1612C23.2537 49.3691 22.7701 49.3855 22.2136 49.214C21.836 49.0952 21.5345 48.8511 21.3159 48.4849C21.1271 48.1682 21.0277 47.8284 21.0244 47.4623H21.0178ZM24.1249 45.6313C24.1117 45.3377 24.0388 45.1332 23.903 45.0177C23.7042 44.8429 23.3962 44.9056 22.9821 45.2025C22.7469 45.3707 22.5349 45.6709 22.3527 46.1064C22.1672 46.5484 22.0877 46.9377 22.1142 47.2709C22.1407 47.5315 22.2865 47.7295 22.5548 47.8614C22.8297 48 23.0881 47.9934 23.3233 47.8416C23.5254 47.7097 23.7175 47.3732 23.8964 46.8322C24.0653 46.3274 24.1382 45.9282 24.1249 45.6346V45.6313Z" fill="white"/>
<path d="M29.1698 43.619C29.8224 43.9225 30.3193 44.3579 30.6538 44.932C30.8956 45.3476 31.0215 45.8491 31.0348 46.4363C31.0447 46.9839 30.952 47.4227 30.7598 47.7526C30.5213 48.1584 30.2795 48.4487 30.041 48.6235C29.7363 48.7951 29.4845 48.8511 29.2791 48.7951C29.1268 48.7522 28.9976 48.6763 28.8883 48.5641C28.4941 48.1353 27.9873 47.3897 27.3745 46.3241C26.7948 45.3146 26.4768 44.668 26.4172 44.3777C26.3907 44.259 26.4238 44.1402 26.5198 44.028C26.6623 43.8598 26.914 43.7212 27.2817 43.6091C27.4738 43.5365 27.7024 43.4804 27.9707 43.4474C28.4808 43.3781 28.885 43.4342 29.1765 43.619H29.1698ZM29.7926 46.0404C29.7197 45.7039 29.5143 45.374 29.1765 45.054C28.8253 44.7604 28.514 44.6186 28.2423 44.6285C28.1032 44.6285 28.0204 44.6746 27.9906 44.7571C27.9508 44.8825 28.1628 45.3476 28.6266 46.1559C29.087 46.9476 29.3752 47.3732 29.4945 47.4293C29.511 47.4392 29.5309 47.4458 29.5475 47.4458C29.5971 47.4458 29.6435 47.4062 29.6932 47.3369C29.7694 47.2181 29.8224 47.0433 29.8456 46.8124C29.8721 46.5649 29.8555 46.3043 29.7959 46.0404H29.7926Z" fill="white"/>
<path d="M29.892 42.8107C29.8853 42.5864 29.9615 42.3555 30.1172 42.1146C30.253 41.9101 30.4319 41.7254 30.6572 41.5604C30.899 41.3823 31.1308 41.2569 31.3462 41.181C31.6244 41.0887 31.8331 41.0953 31.9755 41.2074C32.0484 41.2635 32.1014 41.3196 32.1345 41.3724C32.161 41.4153 32.1776 41.4581 32.1842 41.5043C32.2571 41.6693 32.1842 41.8573 31.9722 42.0684C31.8662 42.174 31.7503 42.2631 31.6277 42.3357C31.4588 42.4478 31.3263 42.5435 31.2302 42.626C31.0513 42.7744 30.9553 42.9031 30.9387 43.0054C30.9188 43.0185 30.9155 43.068 30.9222 43.1571C30.9354 43.2825 30.9983 43.4111 31.111 43.5398C31.1805 43.619 31.2865 43.6454 31.4223 43.6223C31.4257 43.6223 31.4323 43.6223 31.4389 43.6223C31.4753 43.6124 31.5151 43.6025 31.5582 43.5893C31.7271 43.5398 31.8762 43.487 32.0087 43.4309C32.0087 43.4309 32.0186 43.4276 32.0352 43.421C32.2902 43.3122 32.4426 43.3254 32.4923 43.4606C32.5221 43.5134 32.542 43.5794 32.5519 43.6585C32.5685 43.8103 32.5188 43.9423 32.4028 44.0577C32.2968 44.1336 32.1942 44.2128 32.0981 44.3018C32.012 44.3579 31.9325 44.4338 31.8563 44.5229C31.7138 44.701 31.6741 44.8792 31.7437 45.0474C31.7437 45.0474 31.7437 45.0507 31.7437 45.054C31.7635 45.1233 31.8099 45.2058 31.8728 45.3014C31.9557 45.473 32.055 45.5786 32.1677 45.6247C32.1677 45.6247 32.171 45.6247 32.1743 45.6247H32.1809C32.2008 45.6313 32.2207 45.6346 32.2405 45.6346H32.2505C32.2505 45.6346 32.2571 45.6346 32.2604 45.6346C32.2604 45.6346 32.2637 45.6379 32.267 45.6379C32.2737 45.6379 32.277 45.6346 32.2737 45.6346C32.32 45.628 32.6347 45.4796 33.2078 45.186C33.4032 45.1167 33.5457 45.1167 33.6351 45.1827C33.6848 45.2355 33.7212 45.2684 33.7411 45.2849C33.9133 45.4268 33.9531 45.6148 33.857 45.8458C33.7411 46.1196 33.443 46.4066 32.9627 46.7035C32.7639 46.8256 32.5453 46.8948 32.3035 46.9047C32.002 46.9179 31.7403 46.8289 31.5184 46.6375C31.2733 46.4297 31.0282 46.1295 30.783 45.7435C30.4816 45.2717 30.2497 44.6548 30.0874 43.8961C30.0377 43.6981 29.9847 43.4111 29.9218 43.0383C29.8986 42.9625 29.8853 42.8866 29.8853 42.814L29.892 42.8107Z" fill="white"/>
<path d="M38.4581 42.3324C38.4316 42.0619 38.3521 41.8111 38.2262 41.5835C38.097 41.3526 37.9413 41.1777 37.7558 41.0656C37.4941 40.9105 37.2026 40.9105 36.9045 41.0656C36.7157 41.1612 36.5368 41.3097 36.3712 41.5076C36.295 41.6033 36.2619 41.7122 36.2652 41.8342C36.2785 41.9761 36.358 42.1476 36.6395 42.1476C36.6495 42.1476 36.6627 42.1476 36.676 42.1476C36.6859 42.1476 36.7124 42.1443 37.1662 42.0025C37.2656 41.9728 37.365 42.0322 37.4776 42.1773C37.5471 42.273 37.5836 42.3753 37.5836 42.494C37.5836 42.6062 37.5471 42.7117 37.4842 42.8008C37.3153 43.0252 37.0569 43.0944 36.7025 43.012C36.3315 42.9229 35.9969 42.7744 35.712 42.5666C35.3443 42.2994 35.1092 41.9629 35.0164 41.5637L34.9965 41.4911H34.9932C34.9535 41.3493 34.9336 41.1909 34.9369 41.0128C34.9369 40.607 35.0595 40.2969 35.3046 40.0891C35.4305 39.967 35.5795 39.9241 35.7683 39.9637C35.9406 40 36.0797 39.9637 36.1857 39.8614C36.2751 39.7724 36.3248 39.6503 36.3281 39.4953C36.3281 39.3501 36.2917 39.2115 36.2122 39.0928C36.1228 38.9542 35.9969 38.8684 35.8412 38.8355C35.5696 38.7794 35.2913 38.8025 35.0164 38.9047C34.8806 38.9575 34.768 39.0136 34.6852 39.0763C34.4235 39.2511 34.2015 39.5117 34.0227 39.8548C33.6616 40.5377 33.6815 41.3031 34.0757 42.1311C34.4997 43.0218 35.1191 43.6487 35.9141 43.9917C36.2354 44.127 36.5501 44.1996 36.8515 44.1996C36.888 44.1996 36.9244 44.1996 36.9608 44.1996C37.3086 44.1798 37.6101 44.0676 37.8585 43.8697C38.3289 43.4903 38.5343 42.9757 38.4647 42.3324H38.4581Z" fill="white"/>
<path d="M41.3963 40.3167C41.3532 39.8449 41.1909 39.4425 40.969 38.9245C40.6178 38.1064 40.0481 37.3311 39.273 36.6251C39.0908 36.4701 38.8622 36.3876 38.5972 36.3876C38.4117 36.3876 38.2726 36.4371 38.1898 36.5229C38.1003 36.6086 38.0506 36.7538 38.0341 36.9616C38.0275 37.0936 38.1136 37.2585 38.2991 37.4631C38.4051 37.5818 38.6005 37.7666 38.8953 38.0239C39.3657 38.4429 39.6837 38.7563 39.8394 38.9542C40.1143 39.3105 40.2303 39.6602 40.1839 39.9967C40.1673 40.1188 40.0845 40.2771 39.9388 40.4651L39.9255 40.4783C39.6241 40.6466 39.316 40.6136 38.998 40.3794C38.7595 40.2012 38.4614 39.8614 38.1202 39.3666C37.8155 38.9245 37.5836 38.6177 37.4246 38.4495C37.153 38.1559 36.9111 38.0107 36.6859 38.0074C36.6693 38.0074 36.6395 38.0074 36.5931 38.0074C36.4408 38.0107 36.3116 38.0437 36.2089 38.1064C36.0433 38.2054 35.9638 38.3703 35.977 38.5946C35.9936 38.8849 36.1592 39.1588 36.4739 39.4128C36.5269 39.4425 36.6031 39.5084 36.7091 39.6107C36.7985 39.6767 36.9045 39.7724 37.0271 39.8977L37.418 40.2837C37.5935 40.4618 37.7459 40.6169 37.8618 40.7489C38.0043 40.9105 38.1533 41.059 38.309 41.1975C38.521 41.3889 39.1636 41.8441 39.6837 41.9464C39.7566 41.9596 39.8328 41.9662 39.9156 41.9662C40.0381 41.9662 40.174 41.9497 40.3296 41.9167C40.6046 41.8606 40.8133 41.755 40.9458 41.6099C41.1246 41.4119 41.2571 41.1579 41.3366 40.8511C41.393 40.6433 41.4161 40.4651 41.4029 40.32L41.3963 40.3167Z" fill="white"/>
<path d="M40.8729 37.0804C40.7271 36.6317 40.5483 36.1105 40.2535 35.741C39.9355 35.3451 39.8957 35.9786 39.8593 36.1303C39.7566 36.5823 39.687 36.8891 39.1405 36.7571C38.6336 36.635 38.4448 36.3942 38.5508 35.8697C38.6237 35.5101 38.7231 35.355 38.8953 34.8701C39.0179 34.527 39.2928 33.8969 39.7566 33.953C40.7768 34.0783 41.2273 35.2495 41.6248 36.0313C41.7805 36.3348 42.0124 37.087 42.3735 37.2058C42.6981 37.3146 42.7445 36.1765 42.7875 36.0115C42.9167 35.5497 43.2215 35.3781 43.6918 35.5662C44.0827 35.7245 44.3345 35.9786 44.2384 36.4008C44.1357 36.8462 44.0297 37.3245 43.8773 37.7567C43.7481 38.1295 43.4467 38.8091 43.1718 39.0334C42.6351 39.4689 41.3433 38.5023 40.8729 37.0738V37.0804Z" fill="white"/>
<path d="M39.6307 34.075C39.369 34.1047 39.1835 34.0355 39.0676 33.8573C38.9516 33.6825 38.9218 33.4713 38.9781 33.2272C39.0345 32.9798 39.3955 32.7159 40.058 32.4322C40.7205 32.1517 40.7172 31.8416 40.0514 31.5085C39.3856 31.1753 39.0179 30.8981 38.9417 30.6705C38.8655 30.4462 38.8986 30.2416 39.0345 30.0569C39.1703 29.8722 39.4121 29.7897 39.7599 29.8095C40.0845 29.8293 40.6808 29.8458 41.542 29.8557C42.3834 29.8656 43.1022 29.8194 43.6951 29.7171C44.2881 29.6148 44.5796 29.8392 44.5696 30.3802C44.5597 30.9245 44.2815 31.1654 43.7349 31.1093C43.1685 31.0499 42.5026 30.9971 41.7408 30.9476C40.9557 30.8948 40.9226 31.0565 41.6414 31.426C42.3536 31.7955 42.3536 32.1451 41.6414 32.4783C40.9259 32.8115 40.8861 32.9666 41.5122 32.9336C42.1383 32.9039 42.8008 32.8346 43.4997 32.7258C44.192 32.6169 44.5431 32.8445 44.5564 33.4021C44.5663 33.9596 44.3742 34.2301 43.9734 34.2136C43.4964 34.1872 42.7941 34.1476 41.86 34.0915C40.641 34.052 39.9023 34.0454 39.6373 34.075H39.6307Z" fill="white"/>
<path d="M38.6535 27.2C38.8092 27.3715 38.8854 27.5233 38.8854 27.652C38.8854 27.7806 38.8291 27.8598 38.7132 27.8928C38.5972 27.9225 38.4614 27.9159 38.2991 27.8631C38.1401 27.8136 38.0043 27.7311 37.8983 27.6124C37.7923 27.4969 37.7558 27.3814 37.7923 27.266C37.8287 27.1505 37.9016 27.0548 38.0109 26.9823C38.1202 26.9097 38.2229 26.8965 38.3157 26.946C38.4117 26.9955 38.5243 27.0812 38.6502 27.2H38.6535ZM38.9152 27.8466V27.7806C38.9152 27.3188 39.5313 26.8767 40.8795 26.5369C42.2244 26.1971 43.8641 25.9233 44.0662 25.9233C44.3543 25.9233 44.5531 26.1542 44.669 26.6161C44.669 26.979 44.3941 27.1604 43.8475 27.1604C43.609 27.1604 43.4898 27.2825 43.4898 27.5233V27.9126C43.4898 28.1534 43.6024 28.2722 43.8277 28.2722C44.0231 28.259 44.1722 28.2524 44.2748 28.2524C44.4802 28.2986 44.5829 28.4899 44.5829 28.8231V28.8693C44.5829 29.1893 44.2086 29.374 43.4567 29.4202H42.9763C41.8832 29.4202 40.7702 29.1629 39.6274 28.6515C39.157 28.3777 38.9218 28.1105 38.9218 27.8433L38.9152 27.8466ZM41.7308 28.2161H41.9031C42.2045 28.2161 42.3536 28.0808 42.3536 27.8103C42.3536 27.6355 42.2277 27.5002 41.976 27.4078C41.8402 27.3913 41.7342 27.3847 41.6613 27.3847H41.4427C40.7967 27.4276 40.4721 27.5398 40.4721 27.7245V27.7476C40.4721 27.9851 40.8928 28.1402 41.7275 28.2161H41.7308Z" fill="white"/>
<path d="M43.6189 22.1889C43.7051 22.1691 43.7912 22.146 43.8939 22.1427C44.0926 22.1361 44.2351 22.1922 44.3179 22.3109C44.4305 22.466 44.3841 22.6474 44.1854 22.8519C43.9138 23.1093 43.4599 23.4293 42.8239 23.8119C42.6782 23.8977 42.5026 24.0462 42.2939 24.254C42.2045 24.3299 42.1681 24.3893 42.1846 24.4289C42.2211 24.5311 42.3138 24.574 42.4629 24.5575C42.4728 24.5575 42.4861 24.5575 42.506 24.5509C42.5225 24.5509 42.5358 24.5476 42.5457 24.5443H42.549C43.6951 24.4058 44.3046 24.3497 44.3775 24.3761C44.4537 24.4058 44.5166 24.4454 44.563 24.4981C44.6425 24.5608 44.6889 24.6829 44.7021 24.8643C44.7154 25.0755 44.6624 25.2371 44.5365 25.3526C44.4173 25.4614 44.2019 25.5241 43.8906 25.5439C43.715 25.5505 43.5693 25.5505 43.45 25.534C42.1184 25.5109 41.1776 25.534 40.6278 25.6033L39.5611 25.6561C39.5115 25.6561 39.4386 25.6462 39.3425 25.6165C39.2067 25.5604 39.1305 25.4647 39.1106 25.3394C39.1073 25.3493 39.1106 25.3262 39.1206 25.2701C39.1305 25.2173 39.1537 25.1645 39.1802 25.115C39.2465 25.0128 39.3458 24.9204 39.4783 24.8379C39.6771 24.7126 40.0116 24.5212 40.4853 24.2672C40.9027 24.0957 41.2174 23.8449 41.4327 23.515C41.5023 23.4392 41.5254 23.3699 41.4989 23.3072C41.4791 23.2577 41.2803 23.2577 40.9027 23.3138C40.7934 23.327 40.6377 23.3534 40.4423 23.3864C40.2534 23.4194 40.1342 23.4392 40.0878 23.4458H40.0845C39.8162 23.4755 39.5744 23.4524 39.3591 23.3798C39.0841 23.2841 38.955 23.1225 38.9748 22.8948C38.9616 22.6738 39.0345 22.5089 39.1868 22.4033C39.2862 22.334 39.4088 22.2977 39.5611 22.2878C39.6274 22.2878 39.7102 22.2944 39.8129 22.3076C39.9222 22.3208 41.2439 22.7299 43.6223 22.1889H43.6189Z" fill="white"/>
<path d="M7.77773 29.9942C7.60548 29.8656 7.38685 29.8128 7.22123 29.8656C7.07879 29.9117 6.97942 30.0272 6.92642 30.2185C6.90323 30.3934 6.96617 30.555 7.09867 30.654C7.1881 30.7233 7.30735 30.7596 7.43323 30.7596C7.62535 30.7596 7.80423 30.6771 7.9301 30.5287C7.97979 30.4693 8.00298 30.4 7.99304 30.3241C7.97979 30.212 7.90029 30.0899 7.77441 29.9942H7.77773Z" fill="white"/>
<path d="M12.137 27.6849C12.0707 27.5596 11.9714 27.3715 11.8885 27.2066C11.8885 27.2066 11.872 27.1703 11.8521 27.1208L11.554 26.1806C11.4811 25.953 11.342 25.821 11.3287 25.8111C11.2592 25.7649 11.1863 25.7419 11.1101 25.7419C10.9776 25.7419 10.865 25.8111 10.7954 25.8705L10.7855 25.8771C10.7855 25.8771 10.7789 25.8837 10.7722 25.8903C10.759 25.9035 10.749 25.9134 10.7457 25.9167C10.7325 25.9299 10.7225 25.9464 10.7093 25.9662C10.6927 25.9926 10.6596 26.0685 10.6596 26.1839C10.6795 26.3489 10.7689 26.4544 10.7722 26.461C10.8418 26.5402 10.8418 26.5897 10.8319 26.5996L10.8252 26.6095C10.8252 26.6095 10.7987 26.6392 10.759 26.6557L10.7358 26.6623C10.7159 26.6689 10.6927 26.6755 10.6662 26.6821C10.5801 26.7052 10.4344 26.7447 10.3515 26.7645C10.1727 26.8107 10.0269 26.8371 9.90767 26.8437C9.76854 26.8635 9.56648 26.8899 9.39754 26.8899C9.20873 26.8899 9.14911 26.8569 9.13586 26.847C8.81454 26.5369 8.33092 26.3588 8.23486 26.3225C7.96986 26.2532 7.69823 26.2169 7.42661 26.2169C6.77405 26.2169 6.21092 26.4214 5.84323 26.7975C5.58155 27.0911 5.46561 27.4177 5.49874 27.7608C5.53517 28.127 5.73392 28.5097 6.09498 28.899C6.1513 28.955 6.65148 29.4433 7.08542 29.539C7.23117 29.572 7.38023 29.5885 7.52598 29.5885C7.83073 29.5885 8.12886 29.5159 8.41704 29.374C8.53629 29.3047 8.83773 29.0969 9.07954 28.6548C9.19548 28.4668 9.29486 28.2161 9.29817 28.2029C9.39423 27.939 9.51679 27.8268 9.51679 27.8268C9.86461 27.5233 10.5536 27.4474 10.8352 27.4276H10.8484C10.9279 27.4276 11.1863 27.4441 11.2559 27.6783C11.279 27.7905 11.3387 27.9555 11.4944 28.1138C11.5772 28.1963 11.6699 28.2359 11.7726 28.2359C11.9283 28.2359 12.0475 28.1402 12.0509 28.1402C12.2364 28.0082 12.19 27.7806 12.1403 27.675L12.137 27.6849ZM7.61873 28.5889C7.4763 28.5889 7.33717 28.5394 7.20798 28.4404C7.19473 28.4272 7.17817 28.4173 7.15498 28.3975C6.86348 28.1402 6.83698 27.807 7.08873 27.5035C7.27755 27.2726 7.58892 27.1175 7.86055 27.1175C8.01292 27.1175 8.14873 27.167 8.24811 27.2594C8.52967 27.5233 8.43361 27.995 8.17523 28.2953C8.01623 28.48 7.81748 28.5856 7.61542 28.5856L7.61873 28.5889Z" fill="white"/>
<path d="M6.63492 25.6561H6.65148C6.84692 25.7089 7.07548 25.7352 7.30073 25.7352C7.35042 25.7352 7.40342 25.7352 7.4498 25.7319H7.49617C8.65223 25.7188 9.30479 24.8115 9.32798 24.7785L9.35779 24.7456C9.67579 24.3134 9.92423 24.2507 10.0468 24.2507C10.1031 24.2507 10.1362 24.2639 10.1362 24.2672C10.378 24.3728 10.4211 24.5476 10.4277 24.5806V24.6004H10.4344C10.494 24.7983 10.3184 24.9567 10.3085 24.9666C10.2985 24.9765 10.1031 25.1909 10.2257 25.3955C10.3217 25.501 10.4973 25.6264 10.6894 25.6264C10.9312 25.6264 11.0902 25.3427 11.183 25.1117C11.1929 25.0887 11.1995 25.0656 11.2095 25.0425C11.2327 24.9765 11.2459 24.9336 11.2459 24.9336L11.2559 24.894C11.332 24.5608 11.2989 24.2012 11.1532 23.8812C10.8716 23.3171 10.3449 23.1752 10.2389 23.1522C9.89111 23.0928 9.56317 23.1785 9.27498 23.4029C8.94042 23.6635 8.70192 23.8911 8.50979 24.0759C8.27129 24.3035 8.09905 24.4684 7.88042 24.574C7.75455 24.6334 7.62867 24.6631 7.50942 24.6631C7.13511 24.6631 6.9198 24.3695 6.9198 24.3695C6.84692 24.2342 6.76742 23.967 7.08873 23.6965C7.08873 23.6965 7.19142 23.614 7.31398 23.5546H7.32061C7.32061 23.5546 7.35373 23.5381 7.37361 23.5282C7.51273 23.4656 7.76117 23.3171 7.86054 23.0499C7.87711 22.9542 7.87048 22.8487 7.83736 22.7398C7.76448 22.4891 7.52598 22.3571 7.14173 22.3538H7.11855C6.84692 22.3538 6.47592 22.5089 6.47261 22.5122C6.36992 22.5583 6.27055 22.6144 6.17117 22.6738C5.9923 22.786 5.67098 23.0103 5.48217 23.3303L5.4358 23.4128C5.37617 23.5348 5.33974 23.6602 5.3298 23.779C5.2768 24.1287 5.34305 24.4816 5.52192 24.795C5.9393 25.5241 6.61173 25.6627 6.64155 25.666L6.63492 25.6561Z" fill="white"/>
</g>
<defs>
<clipPath id="clip0_1_807">
<rect width="49.863" height="56" fill="white"/>
</clipPath>
</defs>
</svg>
